<?xml version="1.0" encoding="UTF-8"?>
<svg width="512" height="512" viewBox="0 0 512 512" fill="none" xmlns="http://www.w3.org/2000/svg">
  <rect width="512" height="512" rx="100" fill="#4F46E5"/>
  <path d="M256 128C176.5 128 112 192.5 112 272C112 351.5 176.5 416 256 416C335.5 416 400 351.5 400 272C400 192.5 335.5 128 256 128ZM256 384C194.1 384 144 333.9 144 272C144 210.1 194.1 160 256 160C317.9 160 368 210.1 368 272C368 333.9 317.9 384 256 384Z" fill="white"/>
  <path d="M320 256H272V208C272 199.2 264.8 192 256 192C247.2 192 240 199.2 240 208V272C240 280.8 247.2 288 256 288H320C328.8 288 336 280.8 336 272C336 263.2 328.8 256 320 256Z" fill="white"/>
</svg> 